<?xml version="1.0" standalone="no"?>
<!DOCTYPE svg PUBLIC "-//W3C//DTD SVG 20010904//EN"
 "http://www.w3.org/TR/2001/REC-SVG-20010904/DTD/svg10.dtd">
<svg version="1.0" xmlns="http://www.w3.org/2000/svg"
 width="500.000000pt" height="500.000000pt" viewBox="0 0 500.000000 500.000000"
 preserveAspectRatio="xMidYMid meet">
<metadata>
Created by potrace 1.14, written by Peter Selinger 2001-2017
</metadata>
<g transform="translate(0.000000,500.000000) scale(0.100000,-0.100000)"
fill="#000000" stroke="none">
<path d="M0 2920 c0 -1246 4 -2080 9 -2080 5 0 12 19 16 43 3 23 22 114 41
202 18 88 39 185 45 215 6 30 15 64 19 75 5 11 16 63 26 115 9 52 20 100 24
105 4 6 11 26 15 45 4 19 11 49 15 65 5 17 16 64 25 105 18 80 57 203 82 259
8 19 18 51 20 73 3 21 10 41 14 44 5 3 9 15 9 28 0 12 4 26 8 32 5 5 23 45 41
89 35 84 92 186 122 216 23 23 73 49 95 49 15 0 16 -16 9 -201 -6 -186 -6
-201 10 -197 11 2 26 28 41 67 14 35 28 69 33 75 5 6 17 31 27 56 9 25 22 51
28 59 6 7 19 34 28 60 16 42 17 43 13 11 -3 -19 -10 -215 -15 -435 -9 -389
-37 -1023 -46 -1037 -7 -11 -5 -862 3 -965 l6 -93 1725 0 1724 0 -5 227 c-6
268 -18 402 -52 573 -31 152 -50 223 -76 273 -10 22 -19 44 -19 50 0 7 -6 24
-14 38 -7 14 -16 43 -20 64 -4 20 -11 45 -16 54 -5 9 -16 34 -25 56 -17 43
-49 115 -69 155 -6 14 -25 65 -41 113 -26 78 -28 90 -15 100 19 15 68 87 88
132 6 11 24 35 41 52 17 18 31 39 31 45 0 7 12 36 27 63 34 65 39 146 18 300
-9 66 -19 177 -22 246 -6 122 -5 127 18 160 33 46 58 73 62 68 8 -9 45 -146
52 -189 4 -25 11 -61 15 -80 5 -19 14 -69 20 -110 22 -144 34 -206 63 -335 16
-71 35 -159 42 -195 7 -36 18 -85 23 -110 9 -42 17 -83 43 -220 6 -30 15 -74
20 -96 5 -23 12 -75 15 -115 4 -41 10 -78 14 -84 4 -5 13 -48 20 -95 7 -47 16
-105 20 -130 11 -67 44 -185 52 -188 5 -2 8 -26 8 -53 0 -35 4 -49 14 -49 19
0 30 18 45 70 7 25 17 50 21 55 5 6 11 51 15 100 4 50 10 99 14 110 20 50 32
97 41 161 5 38 15 94 20 124 6 30 15 81 20 113 32 191 48 267 75 362 9 33 24
89 32 125 8 36 19 83 25 105 5 22 14 74 20 115 5 41 19 129 30 195 11 66 26
177 33 247 7 70 15 130 18 135 3 4 10 102 17 217 17 291 -8 1138 -39 1336 -5
30 -17 102 -26 160 -9 58 -21 132 -26 165 -5 33 -14 96 -19 140 -12 100 -29
204 -36 228 -5 16 -42 17 -598 17 l-593 0 -12 -72 c-11 -69 -21 -159 -41 -343
-12 -120 -37 -178 -84 -200 -69 -32 -206 -80 -311 -109 -33 -9 -83 -26 -111
-37 -42 -16 -56 -18 -80 -8 -73 28 -498 21 -609 -10 -16 -5 -73 -16 -125 -26
-87 -15 -140 -16 -595 -6 -275 6 -514 13 -532 17 -41 8 -103 67 -179 169 -32
44 -62 82 -66 83 -5 2 -8 10 -8 18 0 8 -5 14 -10 14 -6 0 -15 11 -20 25 -5 14
-14 25 -19 25 -5 0 -11 8 -14 18 -7 21 -37 71 -55 90 -6 7 -17 23 -23 34 -6
11 -18 28 -27 39 -9 10 -30 45 -47 77 -16 32 -52 90 -79 130 l-50 72 -268 0
-268 0 0 -2080z"/>
</g>
</svg>
